<?xml version="1.0" encoding="UTF-8" standalone="no"?> <svg width="48" height="48" viewBox="0 0 48 48" fill="none" xmlns="http://www.w3.org/2000/svg">
<path d="M30.283 14.694L26.849 13.682L24.825 10.728C24.7281 10.6011 24.6033 10.4983 24.4602 10.4275C24.3171 10.3568 24.1596 10.3199 24 10.3199C23.8404 10.3199 23.6829 10.3568 23.5398 10.4275C23.3967 10.4983 23.2719 10.6011 23.175 10.728L21.151 13.682L17.717 14.694C17.5612 14.7399 17.4188 14.8231 17.3024 14.9364C17.1859 15.0497 17.0988 15.1896 17.0486 15.3441C16.9983 15.4986 16.9865 15.6631 17.0141 15.8232C17.0417 15.9833 17.1079 16.1342 17.207 16.263L19.391 19.1L19.291 22.679C19.2865 22.8415 19.3216 23.0026 19.3933 23.1484C19.4651 23.2943 19.5713 23.4204 19.7028 23.5159C19.8343 23.6115 19.9871 23.6735 20.1479 23.6967C20.3088 23.7199 20.4729 23.7035 20.626 23.649L24 22.449L27.373 23.649C27.5261 23.7035 27.6902 23.7199 27.8511 23.6967C28.0119 23.6735 28.1647 23.6115 28.2962 23.5159C28.4277 23.4204 28.5339 23.2943 28.6057 23.1484C28.6774 23.0026 28.7125 22.8415 28.708 22.679L28.608 19.1L30.792 16.263C30.8911 16.1342 30.9573 15.9833 30.9849 15.8232C31.0125 15.6631 31.0007 15.4986 30.9504 15.3441C30.9002 15.1896 30.8131 15.0497 30.6966 14.9364C30.5802 14.8231 30.4378 14.7399 30.282 14.694H30.283ZM26.807 18.162C26.6668 18.3442 26.5937 18.5692 26.6 18.799L26.668 21.275L24.335 20.445C24.1181 20.369 23.8819 20.369 23.665 20.445L21.332 21.275L21.4 18.8C21.4063 18.5702 21.3332 18.3452 21.193 18.163L19.683 16.2L22.059 15.5C22.2796 15.4349 22.471 15.2958 22.601 15.106L24 13.063L25.4 15.105C25.53 15.2948 25.7214 15.4339 25.942 15.499L28.318 16.199L26.807 18.162Z" fill="black"/>
<path d="M41 12H38V7C38 6.20435 37.6839 5.44129 37.1213 4.87868C36.5587 4.31607 35.7956 4 35 4H13C12.2044 4 11.4413 4.31607 10.8787 4.87868C10.3161 5.44129 10 6.20435 10 7V12H7C6.20435 12 5.44129 12.3161 4.87868 12.8787C4.31607 13.4413 4 14.2044 4 15V19.5C4.00175 21.4772 4.78345 23.3738 6.17534 24.7781C7.56723 26.1823 9.45691 26.9808 11.434 27C12.274 28.7577 13.4687 30.3226 14.9429 31.5961C16.4171 32.8696 18.1389 33.8243 20 34.4V35C20 35.5304 19.7893 36.0391 19.4142 36.4142C19.0391 36.7893 18.5304 37 18 37H15C13.6744 37.0016 12.4036 37.5289 11.4662 38.4662C10.5289 39.4036 10.0016 40.6744 10 42C10 42.5304 10.2107 43.0391 10.5858 43.4142C10.9609 43.7893 11.4696 44 12 44H36C36.5304 44 37.0391 43.7893 37.4142 43.4142C37.7893 43.0391 38 42.5304 38 42C37.9984 40.6744 37.4711 39.4036 36.5338 38.4662C35.5964 37.5289 34.3256 37.0016 33 37H30C29.4696 37 28.9609 36.7893 28.5858 36.4142C28.2107 36.0391 28 35.5304 28 35V34.4C29.8611 33.8243 31.5829 32.8696 33.0571 31.5961C34.5313 30.3226 35.726 28.7577 36.566 27C38.5431 26.9808 40.4328 26.1823 41.8247 24.7781C43.2165 23.3738 43.9982 21.4772 44 19.5V15C44 14.2044 43.6839 13.4413 43.1213 12.8787C42.5587 12.3161 41.7956 12 41 12ZM6 19.5V15C6 14.7348 6.10536 14.4804 6.29289 14.2929C6.48043 14.1054 6.73478 14 7 14H10V20.759C10 22.1691 10.2066 23.5717 10.613 24.922C9.32617 24.7117 8.1559 24.0511 7.31097 23.058C6.46604 22.0649 6.00142 20.8039 6 19.5V19.5ZM36 42H12C12 41.2044 12.3161 40.4413 12.8787 39.8787C13.4413 39.3161 14.2044 39 15 39H33C33.7956 39 34.5587 39.3161 35.1213 39.8787C35.6839 40.4413 36 41.2044 36 42ZM26.561 37H21.461C21.8144 36.3928 22.0004 35.7026 22 35V34.837C23.3245 35.0543 24.6755 35.0543 26 34.837V35C26.0052 35.7048 26.1989 36.3953 26.561 37V37ZM24 33C20.7867 32.9641 17.7188 31.6552 15.4692 29.3605C13.2196 27.0657 11.972 23.9724 12 20.759V7C12 6.73478 12.1054 6.48043 12.2929 6.29289C12.4804 6.10536 12.7348 6 13 6H35C35.2652 6 35.5196 6.10536 35.7071 6.29289C35.8946 6.48043 36 6.73478 36 7V20.759C36.028 23.9724 34.7804 27.0657 32.5308 29.3605C30.2812 31.6552 27.2133 32.9641 24 33ZM42 19.5C41.9986 20.8039 41.534 22.0649 40.689 23.058C39.8441 24.0511 38.6738 24.7117 37.387 24.922C37.7934 23.5717 38 22.1691 38 20.759V14H41C41.2652 14 41.5196 14.1054 41.7071 14.2929C41.8946 14.4804 42 14.7348 42 15V19.5Z" fill="black"/>
</svg>
